<svg xmlns="http://www.w3.org/2000/svg" width="218" height="40" fill="none"><path fill="#fff" fill-rule="evenodd" d="M20 0c-2.608 0-4.882 1.456-6.466 3.634q-.144.199-.282.406-.144-.03-.287-.057c-2.653-.468-5.286.054-7.108 1.875-1.82 1.822-2.343 4.455-1.875 7.108q.027.144.058.287-.207.137-.406.281C1.456 15.118 0 17.392 0 20s1.456 4.882 3.634 6.466q.199.144.406.281l-.058.288c-.468 2.653.055 5.286 1.876 7.108 1.822 1.82 4.454 2.343 7.107 1.875l.287-.058q.138.208.282.406C15.118 38.544 17.392 40 20 40s4.882-1.456 6.466-3.634q.144-.2.283-.406l.286.058c2.653.468 5.285-.055 7.107-1.876 1.82-1.822 2.342-4.454 1.875-7.107q-.027-.143-.057-.287.208-.137.406-.282C38.544 24.882 40 22.608 40 20s-1.456-4.882-3.634-6.466q-.2-.144-.407-.282.03-.144.057-.287c.468-2.653-.053-5.286-1.874-7.108-1.822-1.821-4.455-2.342-7.108-1.874q-.143.027-.285.057a11 11 0 0 0-.283-.406C24.882 1.456 22.608 0 20 0m0 32.435c1.465 1.308 3.081 2.295 4.717 2.926C23.422 37.056 21.752 38 20 38s-3.422-.944-4.717-2.639c1.636-.63 3.252-1.618 4.717-2.925m14.106-4.677c.274 2.049-.216 3.807-1.379 4.97-1.162 1.162-2.92 1.651-4.968 1.377.677-1.534 1.1-3.281 1.21-5.136 1.856-.11 3.603-.534 5.136-1.211m-28.21 0c1.533.677 3.28 1.1 5.135 1.21.11 1.856.534 3.603 1.211 5.137-2.049.274-3.806-.214-4.97-1.376-1.163-1.164-1.651-2.922-1.376-4.971m20.586-3.513c.244.85.41 1.762.48 2.717a14 14 0 0 1-1.737-.24 15 15 0 0 1-.868 1.855c.836.198 1.71.33 2.61.388-.117 1.726-.544 3.312-1.19 4.657-1.475-.516-2.981-1.389-4.363-2.604a16.3 16.3 0 0 0 1.778-2.421c.413-.688.764-1.39 1.046-2.097h.073l-.065-.018q.336-.846.543-1.694a13 13 0 0 0 1.693-.543m-.705-17.868c.647 1.345 1.073 2.932 1.19 4.658a15.4 15.4 0 0 0-3.518.633c-.748.229-1.46.513-2.127.847q-.658.33-1.254.721a6.995 6.995 0 0 0 6.697 6.696q.439-.668.801-1.414c.694.416 1.377.91 2.033 1.482q-.584.506-1.19.93.447.902.775 1.892.947-.624 1.834-1.409c1.215 1.382 2.089 2.888 2.605 4.363-1.345.647-2.931 1.073-4.657 1.19a15.6 15.6 0 0 0-.486-3.003 14 14 0 0 0-.982-2.617 12 12 0 0 0-.733-1.279 6.996 6.996 0 0 0-6.697 6.696q.668.44 1.414.802c-.416.695-.91 1.378-1.482 2.034a15 15 0 0 1-.93-1.192q-.902.448-1.892.776c.416.63.886 1.245 1.409 1.835-1.382 1.215-2.888 2.088-4.363 2.604-.646-1.345-1.073-2.931-1.19-4.657 1.245-.08 2.44-.3 3.555-.645a14 14 0 0 0 2.046-.813q.683-.34 1.298-.744a6.997 6.997 0 0 0-6.696-6.696 12 12 0 0 0-.802 1.415A14.3 14.3 0 0 1 10.4 20q.585-.507 1.193-.932a15 15 0 0 1-.776-1.891c-.63.416-1.245.886-1.835 1.409-1.215-1.382-2.088-2.887-2.604-4.362 1.345-.647 2.931-1.074 4.657-1.19.078 1.23.296 2.414.633 3.518.221.724.497 1.414.816 2.062q.344.694.753 1.318a6.996 6.996 0 0 0 6.696-6.696 12 12 0 0 0-1.415-.802A14.3 14.3 0 0 1 20 10.4q.507.585.932 1.192.901-.447 1.891-.776a16.5 16.5 0 0 0-1.41-1.835c1.382-1.215 2.889-2.088 4.364-2.604M8.981 21.413a16.3 16.3 0 0 0 2.355 1.74c.709.43 1.434.793 2.164 1.085v.073l.018-.064q.847.335 1.693.542c.138.563.319 1.13.543 1.693-.85.244-1.76.41-2.715.48q.068-.898.24-1.738a15 15 0 0 1-1.856-.868c-.198.836-.33 1.71-.388 2.61-1.726-.117-3.311-.544-4.656-1.19.516-1.475 1.387-2.981 2.602-4.363m26.38-6.13C37.056 16.576 38 18.247 38 20s-.944 3.422-2.638 4.717c-.631-1.636-1.619-3.253-2.927-4.718 1.308-1.465 2.295-3.081 2.926-4.717m-30.722 0c.63 1.636 1.617 3.252 2.924 4.717-1.307 1.465-2.294 3.081-2.925 4.717C2.944 23.423 2 21.75 2 20s.945-3.422 2.639-4.717m24.327-2.25c1.725.117 3.312.545 4.656 1.19-.516 1.476-1.39 2.981-2.604 4.363a16.3 16.3 0 0 0-2.336-1.73c-.715-.434-1.446-.8-2.182-1.094v-.072l-.018.064a13 13 0 0 0-1.692-.543q-.208-.847-.544-1.693c.85-.244 1.762-.41 2.716-.48a14 14 0 0 1-.24 1.737q.94.365 1.857.869c.198-.837.33-1.71.387-2.61M14.224 6.378c1.475.516 2.98 1.388 4.362 2.603a16.5 16.5 0 0 0-1.729 2.337 15 15 0 0 0-1.095 2.182h-.07l.06.017q-.335.846-.542 1.694-.846.207-1.691.543c-.244-.85-.41-1.761-.48-2.716q.898.067 1.738.238.364-.939.868-1.855a15.7 15.7 0 0 0-2.61-.386c.116-1.726.543-3.312 1.189-4.657m13.534-.483c2.049-.275 3.807.214 4.97 1.377s1.652 2.92 1.377 4.97c-1.533-.678-3.28-1.1-5.135-1.21-.11-1.856-.535-3.604-1.212-5.137M7.27 7.272c1.164-1.163 2.923-1.653 4.972-1.377-.677 1.534-1.101 3.28-1.212 5.136-1.855.11-3.602.533-5.135 1.21-.275-2.048.213-3.806 1.375-4.969M20 2c1.751 0 3.422.944 4.717 2.638-1.636.63-3.252 1.618-4.717 2.925-1.465-1.307-3.081-2.293-4.717-2.924C16.578 2.945 18.25 2 20 2" clip-rule="evenodd"/><path fill="#fff" d="M89.86 32.443c.94 1.763 2.754 2.872 5.093 2.872s4.152-1.11 5.092-2.872h3.517c-1.163 3.522-4.393 5.876-8.61 5.876-4.215 0-7.446-2.354-8.61-5.876zm51.228-18.683c5.36 0 9.116 3.687 9.116 8.978 0 5.6-4.166 8.775-8.57 8.775-2.73 0-5.052-1.23-6.281-3.414v10.173h-3.243v-15.5c0-5.496 3.755-9.012 8.978-9.012m.035 3.004c-3.448 0-5.77 2.458-5.77 5.872s2.322 5.872 5.77 5.872c3.482 0 5.803-2.458 5.803-5.872s-2.321-5.872-5.803-5.872M75.644 13.76c5.326 0 9.081 3.755 9.081 8.876s-3.755 8.877-9.08 8.877-9.082-3.756-9.082-8.877 3.755-8.876 9.081-8.876m0 3.004c-3.482 0-5.803 2.458-5.803 5.872s2.321 5.872 5.803 5.872 5.804-2.458 5.804-5.872-2.322-5.872-5.804-5.872m19.668-2.996h8.821v2.9h-2.274c1.378 1.545 2.175 3.611 2.175 5.968 0 5.12-3.756 8.877-9.081 8.877-5.326 0-9.081-3.756-9.081-8.877s3.755-8.876 9.08-8.876q.181.001.36.008m-.36 2.996c-3.481 0-5.803 2.458-5.803 5.872s2.322 5.872 5.804 5.872 5.802-2.459 5.802-5.872c0-3.414-2.32-5.872-5.802-5.872m19.308-3.004c5.326 0 9.081 3.755 9.081 8.876s-3.755 8.877-9.081 8.877-9.081-3.756-9.081-8.877 3.756-8.876 9.081-8.876m0 3.004c-3.482 0-5.803 2.458-5.803 5.872s2.321 5.872 5.803 5.872c3.483 0 5.804-2.458 5.804-5.872s-2.322-5.872-5.804-5.872m44.142-3.004c4.029 0 6.521 2.287 6.589 5.19h-3.21c-.102-1.298-1.296-2.255-3.344-2.255-2.151 0-3.38 1.025-3.38 2.357 0 1.604 1.775 1.774 3.857 2.048 2.936.375 6.52.921 6.521 4.779 0 3.414-2.765 5.633-6.998 5.634-4.234 0-6.897-2.254-6.999-5.327h3.277c.068 1.4 1.366 2.39 3.722 2.39 2.457 0 3.72-1.058 3.72-2.39 0-1.604-1.775-1.81-3.891-2.082-2.936-.376-6.487-.922-6.487-4.78 0-3.311 2.595-5.564 6.623-5.564m12.167 9.25c0 3.654 2.015 5.498 5.087 5.498 3.073 0 5.087-1.844 5.087-5.497v-8.808h3.243v8.808c0 5.599-3.345 8.5-8.33 8.5s-8.33-2.867-8.33-8.5v-8.808h3.243zM53.068 27.86h12.53v3.208H49.585V8.741h3.482zm75.96 3.208h-3.243V14.203h3.243zm76.318-17.308c3.96 0 6.965 2.39 6.965 7.545v9.763h-3.244v-9.763c0-3.14-1.672-4.541-4.028-4.541-2.287 0-3.995 1.468-3.995 4.54v9.764h-3.243v-9.763c0-3.073-1.741-4.541-4.028-4.541-2.356 0-4.029 1.4-4.029 4.54v9.764h-3.243v-9.763c0-5.155 3.005-7.545 6.965-7.545 2.594 0 4.779 1.16 5.939 3.345 1.161-2.184 3.312-3.345 5.941-3.345M127.389 7c1.297 0 2.254.956 2.254 2.253s-.956 2.288-2.254 2.288c-1.297 0-2.253-.99-2.253-2.288S126.092 7 127.389 7M215 8c.588 0 1.094.676 1.34 1.66.984.245 1.66.752 1.66 1.34s-.676 1.094-1.66 1.34c-.246.984-.752 1.66-1.34 1.66-.587 0-1.094-.676-1.34-1.66-.984-.246-1.66-.753-1.66-1.34s.676-1.095 1.66-1.34c.246-.984.753-1.66 1.34-1.66"/></svg>