<svg xmlns="http://www.w3.org/2000/svg" viewBox="0 0 48 48" width="48" height="48" fill="none" role="img" aria-label="Tearline">
  <!-- Kept in sync by hand with the #brand-mark inlined in src/app/page.tsx —
       the OG renderer reads THIS file, the page reads that one. The plate is the
       product accent; the page's copy reads it from --color-background. -->
  <clipPath id="c"><rect width="48" height="48" rx="12"/></clipPath>
  <g clip-path="url(#c)">
    <rect width="48" height="48" rx="12" fill="#FFA552"/>
    <rect width="48" height="48" fill="url(#sheen)"/>
    <path opacity=".6" fill-rule="evenodd" clip-rule="evenodd" fill="url(#ink)"
      d="M16.0833 9.75C12.5855 9.75 9.75 12.5855 9.75 16.0833V31.9167C9.75 35.4145 12.5855 38.25 16.0833 38.25H31.9167C35.4145 38.25 38.25 35.4145 38.25 31.9167V16.0833C38.25 12.5855 35.4145 9.75 31.9167 9.75H16.0833ZM16.0833 13.7083C14.7717 13.7083 13.7083 14.7717 13.7083 16.0833V31.9167C13.7083 33.2283 14.7717 34.2917 16.0833 34.2917H21.625C22.9367 34.2917 24 33.2283 24 31.9167V16.0833C24 14.7717 22.9367 13.7083 21.625 13.7083H16.0833Z"/>
  </g>
  <rect x="1" y="1" width="46" height="46" rx="11" stroke="url(#edge)" stroke-width="2"/>
  <defs>
    <linearGradient id="sheen" x1="24" y1="0" x2="26" y2="48" gradientUnits="userSpaceOnUse">
      <stop stop-color="#fff" stop-opacity="0"/><stop offset="1" stop-color="#fff" stop-opacity=".12"/>
    </linearGradient>
    <linearGradient id="ink" x1="24" y1="9.75" x2="24" y2="38.25" gradientUnits="userSpaceOnUse">
      <stop stop-color="#fff" stop-opacity=".9"/><stop offset="1" stop-color="#fff" stop-opacity=".6"/>
    </linearGradient>
    <linearGradient id="edge" x1="24" y1="0" x2="24" y2="48" gradientUnits="userSpaceOnUse">
      <stop stop-color="#fff" stop-opacity=".2"/><stop offset="1" stop-color="#fff" stop-opacity="0"/>
    </linearGradient>
  </defs>
</svg>
